<svg id="Laag_1" data-name="Laag 1" xmlns="http://www.w3.org/2000/svg" xmlns:xlink="http://www.w3.org/1999/xlink" viewBox="0 0 757.67 259.34"><defs><style>.cls-1{fill:#3c3c3b;}.cls-2{fill:url(#Naamloos_verloop_28);}</style><linearGradient id="Naamloos_verloop_28" x1="3.02" y1="131.83" x2="490.96" y2="131.83" gradientUnits="userSpaceOnUse"><stop offset="0" stop-color="#e30613"/><stop offset="1" stop-color="#f9b233"/></linearGradient></defs><path class="cls-1" d="M441.88,168.06q2,0,3.24,2.64v17.49c0,4.12,0,6.63.12,7.51h.24a73.59,73.59,0,0,0,8.29-6.31q5.18-4.39,12.5-11.24,11.18-9.37,14.18-9.37c1.28,0,3.37,1.72,6.25,5.17,2.88,1.12,4.37,2.44,4.45,4,0,1.12-1.59,3.23-4.75,6.31s-7.91,7.39-14.24,12.92a105.14,105.14,0,0,0-10.94,10.09q0,.5,3.73,3.37,20.07,19.71,21.87,24.63a23.58,23.58,0,0,1,1.5,2.47,18.24,18.24,0,0,1,1.14,2.7q-1.32,6.49-4.2,6.49l-2.65,4.45q-1.8,1.92-2.52,1.92-9.85-9.37-18.09-16.88t-15.08-13.64h-.48q-.12,4.32.06,9.07t0,8.77a20.72,20.72,0,0,1-1.2,6.61,3.59,3.59,0,0,1-3.55,2.58l-4.2-1a14.4,14.4,0,0,0-2,.24c-1,.17-2.25.41-3.85.72q-4.94,0-5.29-10.33l-.48-12.5q-.36-11.3-.12-24.75T427,172a6.27,6.27,0,0,1,2.23-1.62,13.43,13.43,0,0,1,3.06-.84c1.2-.2,2.58-.4,4.15-.6S439.79,168.46,441.88,168.06Z" transform="translate(-3.02 -2.16)"/><path class="cls-1" d="M530.08,169q2.4,0,5.77,13.1,6.49,19.59,11.18,35.51t7.81,29v.48a2.7,2.7,0,0,1-.3,1.86,4.35,4.35,0,0,1-1.8,1.09c-.93.36-2.27.82-4,1.38a64.16,64.16,0,0,0-6.85,2.76,3.19,3.19,0,0,1-1.68.24q-4,0-5.77-10.09l-3.13-11.54q-.48,0-.48-.24a1,1,0,0,1-.6.12.11.11,0,0,0-.12.12l-16.34,1q-2.06,8.66-3.55,13.34t-2.34,5.65l-1.68.48a68.23,68.23,0,0,1-6.91-1,11.42,11.42,0,0,1-3.67-1.32,3.55,3.55,0,0,1-1.56-2,14.25,14.25,0,0,1-.48-3.12l2.64-15.74q0-2.16-4.44-8a.71.71,0,0,1-.12-.49.37.37,0,0,0-.12-.24q-.24-2.64,7.57-3.24,1.44-1.08,5.77-15.5,3.12-7.7,6.72-15.21t7.58-15.08Q519,171.18,530.08,169Zm-7,27.4q-2.4,8.29-3.66,13.34a27.53,27.53,0,0,0-1.15,6.85q9.13,0,9.14-1.08Q523.59,196.42,523.11,196.42Z" transform="translate(-3.02 -2.16)"/><path class="cls-1" d="M594.37,169q2.4,0,5.77,13.1,6.5,19.59,11.18,35.51t7.81,29v.48a2.7,2.7,0,0,1-.3,1.86,4.35,4.35,0,0,1-1.8,1.09c-.93.36-2.27.82-4,1.38a64.16,64.16,0,0,0-6.85,2.76,3.19,3.19,0,0,1-1.68.24q-4,0-5.77-10.09l-3.12-11.54c-.33,0-.49-.08-.49-.24a1,1,0,0,1-.6.12.11.11,0,0,0-.12.12l-16.34,1q-2,8.66-3.55,13.34t-2.34,5.65l-1.68.48a68.23,68.23,0,0,1-6.91-1,11.51,11.51,0,0,1-3.67-1.32,3.55,3.55,0,0,1-1.56-2,14.25,14.25,0,0,1-.48-3.12l2.65-15.74q0-2.16-4.45-8a.71.71,0,0,1-.12-.49.37.37,0,0,0-.12-.24q-.24-2.64,7.57-3.24,1.44-1.08,5.77-15.5,3.12-7.7,6.73-15.21t7.57-15.08Q583.32,171.18,594.37,169Zm-7,27.4q-2.4,8.29-3.66,13.34a27.36,27.36,0,0,0-1.14,6.85c6.08,0,9.13-.36,9.13-1.08Q587.89,196.42,587.4,196.42Z" transform="translate(-3.02 -2.16)"/><path class="cls-1" d="M655.42,169.14a37.45,37.45,0,0,1,10.33,1.44,29.88,29.88,0,0,1,9.08,4.27,22.79,22.79,0,0,1,6.55,7,19.41,19.41,0,0,1,2.64,9.73q.6,13.69-16.46,23.32a56.2,56.2,0,0,0,6.13,5.88l15,13.34q5.76,6.14,5.89,7.45v.24q.12,3.25-4.45,8.78-.72,7.44-5,7.45-5.52-2.77-29.8-28.84c-2.4-3.13-4.33-5-5.77-5.65h-.48a4.38,4.38,0,0,1,.06,1.26,11.94,11.94,0,0,1-.18,1.26l1.44,20.43a5.07,5.07,0,0,1-.66,3.19,5.15,5.15,0,0,1-2.58,1.8,21.72,21.72,0,0,1-4.57,1l-6.49.84q-2.16,0-3.42-2.52a23.16,23.16,0,0,1-1.93-6.13,56,56,0,0,1-.84-7.45q-.18-3.85-.18-6.49-.6-13,1.44-37.74h-.24a19.05,19.05,0,0,0-5.16,1.2c-1.69-.55-2.57-1.36-2.65-2.4l-.12-2.76q0-2.4-1.92-9.38V179q-.24-5.28,20.55-8.89,2.76-.48,5.71-.72t6-.24Zm-6.49,18q-.24,6.5-.3,10.58t.06,6.13h.24q15.14-3.36,14.9-9.37v-1.21q-.24-5.4-6.13-6.61h-2.64A29.63,29.63,0,0,0,648.93,187.16Z" transform="translate(-3.02 -2.16)"/><path class="cls-1" d="M754.2,170.7q6.25,1.08,6.49,4l-1.08,3.72a8.25,8.25,0,0,1,.84,3.49,6.41,6.41,0,0,1-1.44,4.8,10,10,0,0,1-4.63,2.59,35.18,35.18,0,0,1-7.39,1.2c-2.88.2-6.13.38-9.73.54q-.62,7.58-.72,14.12c-.08,4.37,0,8.51.12,12.44L737,227.9q.11,7.09,1.44,20.19.12,5.17-10,5.17a18.31,18.31,0,0,0-8.05-1.44q-2.76,0-3.48-19-.24-7,.12-17t1.44-23.14h-.24L703,194c-3.41.29-5.31.42-5.71.42a4,4,0,0,1-2.64-3.72l.48-6.37a29.1,29.1,0,0,0-.61-3.61q.49-5.76,5.65-5.76,18.87-2,32.15-3.13T754.2,170.7Z" transform="translate(-3.02 -2.16)"/><path class="cls-2" d="M3,14.5a12.36,12.36,0,0,1,1.15-5A12.57,12.57,0,0,1,9.4,3.91,14,14,0,0,1,14,2.48C17.38,2.09,38.72,2,68,2.48l86.35,86.35V13.32A10.71,10.71,0,0,1,165.16,2.48h43.09a10.69,10.69,0,0,1,10.83,10.84V250.69a10.37,10.37,0,0,1-3.13,7.62,10.66,10.66,0,0,1-7.7,3.13H165.16a10.65,10.65,0,0,1-7.7-3.13,10.38,10.38,0,0,1-3.14-7.62V185.93L68,99.58v97.19c.08,4,.13,27.75-18.95,46.5C30.42,261.55,7.44,261.52,3.3,261.44Q3.15,138,3,14.5Zm36.2,24V9.73H32.05V38.49Zm0,64.76V74.41H32.05v28.84Zm0,64.68V139.17H32.05v28.76Zm0,64.76V203.93H32.05v28.76ZM190.33,38.49V9.73h-7.26V38.49Zm0,64.76V74.41h-7.26v28.84Zm0,64.68V139.17h-7.26v28.76Zm0,64.76V203.93h-7.26v28.76Z" transform="translate(-3.02 -2.16)"/><path class="cls-2" d="M236.37,13.32a10.38,10.38,0,0,1,3.14-7.62,10.2,10.2,0,0,1,7.61-3.22H290.3a10.36,10.36,0,0,1,7.61,3.13,10.68,10.68,0,0,1,3.14,7.71V196.77c.11,3.88.4,28.63-19.52,47.52-18.46,17.51-40.9,17.28-45.16,17.15Zm35.92,25.17V9.73h-7.16V38.49Zm0,64.76V74.41h-7.16v28.84Zm0,64.68V139.17h-7.16v28.76Zm0,64.76V203.93h-7.16v28.76Z" transform="translate(-3.02 -2.16)"/><path class="cls-2" d="M458.61,2.48H329.08a10.22,10.22,0,0,0-7.61,3.22,10.38,10.38,0,0,0-3.14,7.62V261.44c4.16.2,26.54.85,45.05-16.31,20.54-19,19.8-44.7,19.63-48.36V153.59h64.76c1.08,0,2.24,0,3.48-.11s2.56-.26,3.69-.45V137.38h7.25v13.89h0a25.49,25.49,0,0,0,3.11-1.17c13.32-5.52,20.44-18.38,20.44-18.38a42.42,42.42,0,0,0,5.21-21.3V34.91c0-2.08-.36-15.12-11.12-24.49A33.11,33.11,0,0,0,458.61,2.48ZM354.25,232.69h-7.16V203.93h7.16Zm0-64.76h-7.16V139.17h7.16Zm0-64.68h-7.16V74.41h7.16Zm0-64.76h-7.16V9.73h7.16Zm71.93,71.93H383V45.65h43.17Zm36-7.17h-7.25V74.41h7.25Zm0-64.76h-7.25V9.73h7.25Z" transform="translate(-3.02 -2.16)"/></svg>