<?xml version="1.0" encoding="UTF-8"?>
<svg id="Laag_1" xmlns="http://www.w3.org/2000/svg" xmlns:xlink="http://www.w3.org/1999/xlink" viewBox="0 0 757.67 259.34">
  <defs>
    <style>
      .cls-1 {
        fill: #3c3c3b;
      }

      .cls-2 {
        fill: url(#Naamloos_verloop_28);
      }
    </style>
    <linearGradient id="Naamloos_verloop_28" data-name="Naamloos verloop 28" x1="0" y1="129.67" x2="487.94" y2="129.67" gradientUnits="userSpaceOnUse">
      <stop offset="0" stop-color="#e30613"/>
      <stop offset="1" stop-color="#f9b233"/>
    </linearGradient>
  </defs>
  <g>
    <path class="cls-1" d="M438.86,165.89c1.36,0,2.44.88,3.24,2.64v17.48c0,4.13.04,6.63.12,7.51h.24c2.08-1.28,4.85-3.38,8.29-6.31,3.44-2.92,7.61-6.67,12.5-11.24,7.45-6.25,12.18-9.37,14.18-9.37,1.28,0,3.36,1.72,6.25,5.17,2.88,1.12,4.37,2.44,4.45,3.96,0,1.12-1.58,3.23-4.75,6.31s-7.91,7.39-14.24,12.92c-5.53,4.65-9.18,8.01-10.94,10.09,0,.32,1.24,1.44,3.73,3.37,13.38,13.14,20.67,21.35,21.87,24.64.56.8,1.06,1.62,1.5,2.46.44.84.82,1.74,1.14,2.7-.88,4.33-2.28,6.49-4.21,6.49l-2.64,4.45c-1.2,1.28-2.04,1.92-2.52,1.92-6.57-6.25-12.6-11.88-18.09-16.88-5.49-5.01-10.52-9.55-15.08-13.64h-.48c-.08,2.89-.06,5.91.06,9.07.12,3.17.12,6.09,0,8.77-.12,2.69-.52,4.89-1.2,6.61-.68,1.73-1.86,2.58-3.55,2.58l-4.21-.96c-.4,0-1.08.08-2.04.24-.96.16-2.24.4-3.85.72-3.29,0-5.05-3.44-5.29-10.34l-.48-12.5c-.24-7.53-.28-15.78-.12-24.76.16-8.97.56-19.03,1.2-30.16.64-.72,1.38-1.26,2.22-1.62s1.86-.64,3.06-.84c1.2-.2,2.58-.4,4.15-.6,1.56-.2,3.38-.5,5.47-.9Z"/>
    <path class="cls-1" d="M527.06,166.86c1.6,0,3.52,4.37,5.77,13.1,4.33,13.06,8.05,24.9,11.18,35.51,3.13,10.62,5.73,20.29,7.81,29.02v.48c.08.88-.02,1.5-.3,1.86-.28.36-.88.72-1.8,1.08-.92.36-2.27.82-4.03,1.38-1.76.56-4.04,1.48-6.85,2.77-.16.16-.72.24-1.68.24-2.64,0-4.57-3.36-5.77-10.09l-3.12-11.54c-.32,0-.48-.08-.48-.24-.08.08-.28.12-.6.12-.08,0-.12.04-.12.12l-16.34.96c-1.36,5.77-2.54,10.21-3.54,13.34-1,3.12-1.78,5.01-2.34,5.65l-1.68.48c-2.97-.32-5.27-.66-6.91-1.02-1.64-.36-2.87-.8-3.67-1.32-.8-.52-1.32-1.18-1.56-1.98-.24-.8-.4-1.84-.48-3.12l2.64-15.74c0-1.44-1.48-4.13-4.45-8.05-.08-.08-.12-.24-.12-.48,0-.08-.04-.16-.12-.24-.16-1.76,2.36-2.84,7.57-3.24.96-.72,2.88-5.89,5.77-15.5,2.08-5.12,4.33-10.19,6.73-15.2,2.4-5.01,4.93-10.03,7.57-15.08-.08-.72,3.56-1.8,10.94-3.24ZM520.09,194.26c-1.6,5.53-2.82,9.97-3.67,13.34-.84,3.36-1.22,5.65-1.14,6.85,6.09,0,9.13-.36,9.13-1.08-2.56-12.74-4.01-19.11-4.32-19.11Z"/>
    <path class="cls-1" d="M591.35,166.86c1.6,0,3.52,4.37,5.77,13.1,4.33,13.06,8.05,24.9,11.18,35.51,3.12,10.62,5.73,20.29,7.81,29.02v.48c.08.88-.02,1.5-.3,1.86-.28.36-.88.72-1.8,1.08-.92.36-2.27.82-4.03,1.38-1.76.56-4.05,1.48-6.85,2.77-.16.16-.72.24-1.68.24-2.64,0-4.57-3.36-5.77-10.09l-3.12-11.54c-.32,0-.48-.08-.48-.24-.08.08-.28.12-.6.12-.08,0-.12.04-.12.12l-16.34.96c-1.36,5.77-2.54,10.21-3.55,13.34-1,3.12-1.78,5.01-2.34,5.65l-1.68.48c-2.97-.32-5.27-.66-6.91-1.02-1.64-.36-2.87-.8-3.67-1.32-.8-.52-1.32-1.18-1.56-1.98-.24-.8-.4-1.84-.48-3.12l2.64-15.74c0-1.44-1.48-4.13-4.45-8.05-.08-.08-.12-.24-.12-.48,0-.08-.04-.16-.12-.24-.16-1.76,2.36-2.84,7.57-3.24.96-.72,2.89-5.89,5.77-15.5,2.08-5.12,4.33-10.19,6.73-15.2,2.4-5.01,4.93-10.03,7.57-15.08-.08-.72,3.56-1.8,10.94-3.24ZM584.38,194.26c-1.6,5.53-2.82,9.97-3.67,13.34-.84,3.36-1.22,5.65-1.14,6.85,6.09,0,9.13-.36,9.13-1.08-2.56-12.74-4.01-19.11-4.33-19.11Z"/>
    <path class="cls-1" d="M652.4,166.98c3.52,0,6.97.48,10.34,1.44,3.36.96,6.39,2.38,9.07,4.27,2.68,1.88,4.87,4.23,6.55,7.03s2.56,6.05,2.64,9.73c.4,9.13-5.09,16.91-16.46,23.32.56.8,2.6,2.76,6.13,5.89,3.52,3.13,8.53,7.57,15.02,13.34,3.85,4.09,5.81,6.57,5.89,7.45v.24c.08,2.16-1.4,5.09-4.45,8.77-.48,4.97-2.16,7.45-5.05,7.45-3.69-1.84-13.62-11.46-29.8-28.84-2.4-3.12-4.33-5.01-5.77-5.65h-.48c.08.4.1.82.06,1.26-.04.44-.1.86-.18,1.26l1.44,20.43c.08,1.36-.14,2.43-.66,3.19-.52.76-1.38,1.36-2.58,1.8-1.2.44-2.72.78-4.57,1.02-1.84.24-4.01.52-6.49.84-1.44,0-2.58-.84-3.42-2.52s-1.48-3.72-1.92-6.13-.72-4.89-.84-7.45c-.12-2.56-.18-4.73-.18-6.49-.4-8.65.08-21.23,1.44-37.73h-.24c-1.04,0-2.76.4-5.17,1.2-1.68-.56-2.57-1.36-2.64-2.4l-.12-2.76c0-1.6-.64-4.73-1.92-9.37v-.72c-.16-3.52,6.69-6.49,20.55-8.89,1.84-.32,3.74-.56,5.71-.72,1.96-.16,3.95-.24,5.95-.24h2.16ZM645.91,185c-.16,4.33-.26,7.85-.3,10.58-.04,2.72-.02,4.77.06,6.13h.24c10.09-2.24,15.06-5.37,14.9-9.37v-1.2c-.16-3.6-2.2-5.81-6.13-6.61h-2.64c-2.72,0-4.77.16-6.13.48Z"/>
    <path class="cls-1" d="M751.18,168.54c4.16.72,6.33,2.04,6.49,3.96l-1.08,3.73c.56,1.2.84,2.36.84,3.49.08,2.08-.4,3.69-1.44,4.81-1.04,1.12-2.58,1.98-4.63,2.58-2.04.6-4.51,1-7.39,1.2-2.88.2-6.13.38-9.73.54-.4,5.05-.64,9.75-.72,14.12-.08,4.37-.04,8.51.12,12.44l.36,10.34c.08,4.73.56,11.46,1.44,20.19.08,3.45-3.24,5.17-9.97,5.17-1.92-.96-4.61-1.44-8.05-1.44-1.84,0-3-6.33-3.48-18.99-.16-4.65-.12-10.31.12-17.01.24-6.69.72-14.4,1.44-23.13h-.24c-6.81.56-11.92.98-15.32,1.26-3.41.28-5.31.42-5.71.42-1.68-.72-2.56-1.96-2.64-3.72l.48-6.37c0-.4-.2-1.6-.6-3.6.32-3.85,2.2-5.77,5.65-5.77,12.58-1.36,23.29-2.4,32.15-3.12,8.85-.72,16.16-1.08,21.93-1.08Z"/>
  </g>
  <g>
    <path class="cls-2" d="M0,12.34c.02-1.14.22-2.98,1.15-4.98.29-.62.98-1.96,2.29-3.33,1.25-1.31,2.48-2.03,2.95-2.29,0,0,2.05-1.13,4.64-1.43,3.34-.39,24.67-.45,53.92,0l86.35,86.35V11.15c0-2.99,1.04-5.55,3.14-7.7,2.15-2.09,4.72-3.14,7.7-3.14h43.09c2.99,0,5.55,1.05,7.7,3.14,2.09,2.15,3.14,4.72,3.14,7.7v237.38c0,2.99-1.05,5.53-3.14,7.61-2.15,2.09-4.72,3.14-7.7,3.14h-43.09c-2.99,0-5.55-1.04-7.7-3.14-2.09-2.09-3.14-4.63-3.14-7.61v-64.76l-86.35-86.35v97.19c.08,4.02.13,27.75-18.95,46.5-18.6,18.28-41.58,18.25-45.72,18.17C.18,176.97.09,94.65,0,12.34ZM36.2,36.33V7.57h-7.17v28.75h7.17ZM36.2,101.09v-28.84h-7.17v28.84h7.17ZM36.2,165.76v-28.75h-7.17v28.75h7.17ZM36.2,230.53v-28.75h-7.17v28.75h7.17ZM187.31,36.33V7.57h-7.26v28.75h7.26ZM187.31,101.09v-28.84h-7.26v28.84h7.26ZM187.31,165.76v-28.75h-7.26v28.75h7.26ZM187.31,230.53v-28.75h-7.26v28.75h7.26Z"/>
    <path class="cls-2" d="M233.35,11.15c0-2.99,1.04-5.52,3.14-7.61,2.09-2.15,4.63-3.22,7.61-3.22h43.18c2.98,0,5.52,1.05,7.61,3.14,2.09,2.15,3.14,4.72,3.14,7.7v183.45c.11,3.88.4,28.64-19.52,47.52-18.46,17.51-40.9,17.28-45.16,17.15V11.15ZM269.27,36.33V7.57h-7.17v28.75h7.17ZM269.27,101.09v-28.84h-7.17v28.84h7.17ZM269.27,165.76v-28.75h-7.17v28.75h7.17ZM269.27,230.53v-28.75h-7.17v28.75h7.17Z"/>
    <path class="cls-2" d="M455.59.32h-129.53c-2.99,0-5.53,1.07-7.61,3.22-2.09,2.09-3.14,4.63-3.14,7.61v248.13c4.16.2,26.53.85,45.05-16.31,20.54-19.04,19.8-44.7,19.63-48.36v-43.18h64.76c1.08,0,2.24-.02,3.48-.11,1.33-.1,2.56-.26,3.69-.44v-15.65h7.26v13.89s0,0,0,0c.05.11,2.45-.89,3.11-1.16,13.32-5.52,20.43-18.38,20.43-18.38,4.89-8.84,5.29-17.23,5.21-21.3V32.74c-.02-2.07-.36-15.11-11.12-24.49-8.63-7.52-18.51-7.92-21.22-7.94ZM351.23,230.53h-7.17v-28.75h7.17v28.75ZM351.23,165.76h-7.17v-28.75h7.17v28.75ZM351.23,101.09h-7.17v-28.84h7.17v28.84ZM351.23,36.33h-7.17V7.57h7.17v28.75ZM423.16,108.25h-43.18V43.49h43.18v64.76ZM459.17,101.09h-7.26v-28.84h7.26v28.84ZM459.17,36.33h-7.26V7.57h7.26v28.75Z"/>
  </g>
</svg>